<svg width="72" height="72" viewBox="0 0 72 72" fill="none" xmlns="http://www.w3.org/2000/svg">
<path d="M20.002 48.7588C20.0022 50.1529 21.1333 51.283 22.5273 51.2832H47.6064V62.999H17.8154C12.9464 62.9989 8.99902 59.0516 8.99902 54.1826L8.99902 23.1865H20.002L20.002 48.7588ZM62.999 54.1826C62.999 59.0517 59.0517 62.999 54.1826 62.999H50.9736V51.2832H62.999V54.1826ZM46.7344 47.917H25.2559L28.9854 39.3711H42.9795L46.7344 47.917ZM54.1826 9C59.0516 9 62.9988 12.9465 62.999 17.8154L62.999 47.917H50.9736L50.9736 22.3447C50.9734 20.9355 49.8213 19.8205 48.4424 19.8203H38.0664L38.0518 19.7871H33.8604L33.8457 19.8203H23.3691V9L54.1826 9ZM23.3691 43.8223L23.3691 23.1865H32.377L23.3691 43.8223ZM47.6064 41.5322L39.5459 23.1865H47.6064L47.6064 41.5322ZM41.5 36.0039H30.4551L35.959 23.3936L41.5 36.0039ZM20.002 19.8203H8.99902V17.8154C8.99923 12.9466 12.9466 9.00014 17.8154 9H20.002V19.8203Z" fill="#8769A9"/>
</svg>
